<?xml version="1.0" encoding="UTF-8" standalone="no"?>
<!-- Generator: Adobe Illustrator 12.0.1, SVG Export Plug-In . SVG Version: 6.00 Build 51448)  -->

<svg
   xmlns:dc="http://purl.org/dc/elements/1.1/"
   xmlns:cc="http://creativecommons.org/ns#"
   xmlns:rdf="http://www.w3.org/1999/02/22-rdf-syntax-ns#"
   xmlns:svg="http://www.w3.org/2000/svg"
   xmlns="http://www.w3.org/2000/svg"
   xmlns:xlink="http://www.w3.org/1999/xlink"
   xmlns:sodipodi="http://sodipodi.sourceforge.net/DTD/sodipodi-0.dtd"
   xmlns:inkscape="http://www.inkscape.org/namespaces/inkscape"
   version="1.1"
   id="Layer_1"
   width="256"
   height="256"
   viewBox="0 0 256.00001 256"
   overflow="visible"
   enable-background="new 0 0 519.347 590.323"
   xml:space="preserve"
   inkscape:version="0.48.3.1 r9886"
   sodipodi:docname="apple.svg"
   style="overflow:visible"
   inkscape:export-filename="/home/yuv/Dropbox/dev/github/omgcheese/source_images/apple.png"
   inkscape:export-xdpi="90"
   inkscape:export-ydpi="90"><metadata
   id="metadata17"><rdf:RDF><cc:Work
       rdf:about=""><dc:format>image/svg+xml</dc:format><dc:type
         rdf:resource="http://purl.org/dc/dcmitype/StillImage" /><dc:title></dc:title></cc:Work></rdf:RDF></metadata><defs
   id="defs15"><linearGradient
   id="linearGradient3790"><stop
     style="stop-color:#4f6e18;stop-opacity:1;"
     offset="0"
     id="stop3792" /><stop
     style="stop-color:#88be29;stop-opacity:1;"
     offset="1"
     id="stop3794" /></linearGradient><linearGradient
   id="linearGradient3784"><stop
     id="stop3786"
     offset="0"
     style="stop-color:#700b10;stop-opacity:1" /><stop
     id="stop3788"
     offset="1"
     style="stop-color:#b5121b;stop-opacity:0;" /></linearGradient><linearGradient
   id="linearGradient3768"><stop
     style="stop-color:#ee575e;stop-opacity:1;"
     offset="0"
     id="stop3770" /><stop
     style="stop-color:#b5121b;stop-opacity:0;"
     offset="1"
     id="stop3772" /></linearGradient>
	
	
	
<radialGradient
   inkscape:collect="always"
   xlink:href="#linearGradient3768"
   id="radialGradient3774"
   cx="30.925097"
   cy="85.518738"
   fx="30.925097"
   fy="85.518738"
   r="125.3131"
   gradientTransform="matrix(1,0,0,0.86520186,0,19.322014)"
   gradientUnits="userSpaceOnUse" /><radialGradient
   inkscape:collect="always"
   xlink:href="#linearGradient3768"
   id="radialGradient3778"
   gradientUnits="userSpaceOnUse"
   gradientTransform="matrix(0.0318939,0.60381877,-0.86399743,0.04563663,287.00015,-25.837033)"
   cx="179.11392"
   cy="103.95702"
   fx="179.11392"
   fy="103.95702"
   r="125.3131" /><radialGradient
   inkscape:collect="always"
   xlink:href="#linearGradient3784"
   id="radialGradient3782"
   gradientUnits="userSpaceOnUse"
   gradientTransform="matrix(0.00913162,-0.46956589,0.26889504,0.00522918,75.885623,442.60395)"
   cx="407.82706"
   cy="200.34386"
   fx="407.82706"
   fy="200.34386"
   r="125.3131" /><linearGradient
   inkscape:collect="always"
   xlink:href="#linearGradient3790"
   id="linearGradient3796"
   x1="99.416574"
   y1="46.751494"
   x2="249.2031"
   y2="46.751494"
   gradientUnits="userSpaceOnUse" /></defs><sodipodi:namedview
   pagecolor="#ffffff"
   bordercolor="#666666"
   borderopacity="1"
   objecttolerance="10"
   gridtolerance="10"
   guidetolerance="10"
   inkscape:pageopacity="0"
   inkscape:pageshadow="2"
   inkscape:window-width="745"
   inkscape:window-height="659"
   id="namedview13"
   showgrid="false"
   inkscape:zoom="1.5991246"
   inkscape:cx="104.28695"
   inkscape:cy="107.90606"
   inkscape:window-x="540"
   inkscape:window-y="80"
   inkscape:window-maximized="0"
   inkscape:current-layer="Layer_1" />
<path
   style="fill:#b5121b;fill-rule:evenodd"
   inkscape:connector-curvature="0"
   id="path5"
   d="m 253.01884,159.71293 c 0,0 8.58629,-81.69608 -31.4837,-101.00093 -40.06998,-19.30485 -86.50069,-19.025139 -86.50069,-19.025139 0,0 -22.26154,-5.036105 -28.30334,-4.756393 -6.0418,0.279711 -44.840036,1.678701 -72.825931,26.859224 C 5.9192837,86.970214 2.1035406,102.91723 3.3757836,123.62107 c 1.272243,20.70384 13.6742704,66.5882 13.6742704,66.5882 0,0 17.491,33.85331 20.671361,36.09187 3.180361,2.23856 22.579479,21.26326 35.935812,23.78153 13.356333,2.51827 41.978103,1.6787 48.656273,0.83957 6.67816,-0.83914 44.84052,1.11884 58.51529,-1.11928 13.67476,-2.23813 53.74524,-36.93187 61.05977,-49.80162 7.31454,-12.86976 11.13028,-40.28841 11.13028,-40.28841 z"
   clip-rule="evenodd" /><path
   clip-rule="evenodd"
   d="m 253.01884,159.71293 c 0,0 8.58629,-81.69608 -31.4837,-101.00093 -40.06998,-19.30485 -86.50069,-19.025139 -86.50069,-19.025139 0,0 -22.26154,-5.036105 -28.30334,-4.756393 -6.0418,0.279711 -44.840036,1.678701 -72.825931,26.859224 C 5.9192837,86.970214 2.1035406,102.91723 3.3757836,123.62107 c 1.272243,20.70384 13.6742704,66.5882 13.6742704,66.5882 0,0 17.491,33.85331 20.671361,36.09187 3.180361,2.23856 22.579479,21.26326 35.935812,23.78153 13.356333,2.51827 41.978103,1.6787 48.656273,0.83957 6.67816,-0.83914 44.84052,1.11884 58.51529,-1.11928 13.67476,-2.23813 53.74524,-36.93187 61.05977,-49.80162 7.31454,-12.86976 11.13028,-40.28841 11.13028,-40.28841 z"
   id="path3780"
   inkscape:connector-curvature="0"
   style="fill:url(#radialGradient3782);fill-rule:evenodd;fill-opacity:1" /><path
   clip-rule="evenodd"
   d="m 253.01884,159.71293 c 0,0 8.58629,-81.69608 -31.4837,-101.00093 -40.06998,-19.30485 -86.50069,-19.025139 -86.50069,-19.025139 0,0 -22.26154,-5.036105 -28.30334,-4.756393 -6.0418,0.279711 -44.840036,1.678701 -72.825931,26.859224 C 5.9192837,86.970214 2.1035406,102.91723 3.3757836,123.62107 c 1.272243,20.70384 13.6742704,66.5882 13.6742704,66.5882 0,0 17.491,33.85331 20.671361,36.09187 3.180361,2.23856 22.579479,21.26326 35.935812,23.78153 13.356333,2.51827 41.978103,1.6787 48.656273,0.83957 6.67816,-0.83914 44.84052,1.11884 58.51529,-1.11928 13.67476,-2.23813 53.74524,-36.93187 61.05977,-49.80162 7.31454,-12.86976 11.13028,-40.28841 11.13028,-40.28841 z"
   id="path3766"
   inkscape:connector-curvature="0"
   style="fill:url(#radialGradient3774);fill-rule:evenodd;fill-opacity:1" /><path
   style="fill:url(#radialGradient3778);fill-rule:evenodd;fill-opacity:1"
   inkscape:connector-curvature="0"
   id="path3776"
   d="m 253.01884,159.71293 c 0,0 8.58629,-81.69608 -31.4837,-101.00093 -40.06998,-19.30485 -86.50069,-19.025139 -86.50069,-19.025139 0,0 -22.26154,-5.036105 -28.30334,-4.756393 -6.0418,0.279711 -44.840036,1.678701 -72.825931,26.859224 C 5.9192837,86.970214 2.1035406,102.91723 3.3757836,123.62107 c 1.272243,20.70384 13.6742704,66.5882 13.6742704,66.5882 0,0 17.491,33.85331 20.671361,36.09187 3.180361,2.23856 22.579479,21.26326 35.935812,23.78153 13.356333,2.51827 41.978103,1.6787 48.656273,0.83957 6.67816,-0.83914 44.84052,1.11884 58.51529,-1.11928 13.67476,-2.23813 53.74524,-36.93187 61.05977,-49.80162 7.31454,-12.86976 11.13028,-40.28841 11.13028,-40.28841 z"
   clip-rule="evenodd" /><path
   style="fill:url(#linearGradient3796);fill-rule:evenodd;fill-opacity:1"
   inkscape:connector-curvature="0"
   id="path7"
   d="m 214.85697,53.116473 0.63588,-3.916826 12.40252,-3.357403 0.63637,-5.595527 c 0,0 15.90082,-11.191488 16.53669,-16.227159 0.63588,-5.03567 4.13467,-15.108313 4.13467,-15.108313 L 236.16421,6.9528322 c 0,0 -27.0311,-1.3989902 -28.30334,-1.3989902 -1.27224,0 -12.72095,0.8391339 -12.72095,0.8391339 l -28.93971,6.1553831 -22.89692,19.025139 -2.544,2.517836 -6.36022,20.424129 -9.22266,7.55394 -1.27224,-9.232641 c 0,0 -4.13417,-12.030622 -6.36023,-12.030622 -2.22605,0 -2.86242,-1.39899 -2.86242,-1.39899 h -1.59018 l -6.36023,3.637114 -7.314536,5.315816 3.180356,5.036104 c 0,0 7.31405,4.756393 8.90423,7.55394 1.59018,2.797547 5.40641,10.072209 3.81623,12.869756 -1.59018,2.797547 -5.72435,9.512786 -5.72435,9.512786 l 9.22216,3.637115 c 0,0 3.17987,3.077691 9.5401,-1.678702 6.36022,-4.756393 -1.59018,-9.232641 -1.59018,-9.232641 0,0 -2.86243,-4.196537 1.90811,-6.714806 4.77054,-2.518269 21.30773,-6.994518 26.39572,-6.714806 5.08798,0.279711 17.80893,1.678701 22.89692,2.238124 5.08799,0.559422 36.8911,-11.750477 36.8911,-11.750477 z"
   clip-rule="evenodd" /><g
   id="g9"
   transform="matrix(0.49292638,0,0,0.43366094,-2.6914762e-4,-5.3648329e-5)">
		<path
   style="fill-rule:evenodd"
   inkscape:connector-curvature="0"
   id="path11"
   d="m 128.784,96.677 c 19.355,-7.742 45.585,-15.076 45.585,-15.076 18.618,-4.441 37.196,-6.549 56.171,-3.305 12.472,2.132 30.2,8.871 42.502,7.704 6.438,-7.356 5.01,-17.696 10.211,-25.552 6.205,-9.372 11.687,-0.515 10.789,6.552 4.025,-12.669 43.959,-60.471 57.04,-48.291 4.511,4.199 69.589,-16.137 79.96,-18.709 0.212,3.071 -0.122,6.071 -1,9 17.575,3.292 36.434,-0.392 54.271,1.769 7.537,0.913 18.056,7.336 24.729,1.231 1.819,12.711 0.071,13.33 -1.464,25.2 -2.003,15.479 -11.935,31.819 -22.989,42.547 -3.352,3.452 -7.2,6.203 -11.547,8.253 3.106,7.075 5.986,5.481 -0.182,13.04 -7.153,8.765 -17.479,12.396 -27.818,15.96 -1.044,8.386 21.504,21.834 25.993,28.778 3.272,5.061 27.515,41.83 24.007,41.222 12.243,17.943 11.928,39.532 18.193,58.733 9.227,28.277 5.686,63.759 4.131,93.062 -1.347,25.372 -0.48,51.383 -7.393,74.494 -2.524,8.44 -15.375,66.487 -26.932,65.711 -17.381,49.203 -68.323,100.661 -121.93,104.683 -32.088,2.407 -63.948,-5.23 -96.07,-0.683 -36.439,6.404 -69.496,11.889 -105.735,1.585 C 109.315,570.372 66.443,528.234 48.386,479.739 36.691,448.332 21.452,420.93 14.912,387.631 10.008,362.661 8.375,340.614 3.621,315.216 -4.386,272.435 0.07,221.175 25.211,187.212 c 10.651,-14.388 15.866,-35.889 32.811,-45.057 9.281,-5.021 18.263,-15.345 27.411,-21.24 10e-4,0 23.996,-16.496 43.351,-24.238 z M 414.042,64 c 12.456,-17.565 -7.786,-31.605 -4,-49 -12.237,-0.507 -33.612,3.708 -40.02,15.011 -4.384,7.734 -4.186,16.984 -6.15,25.414 -2.492,10.692 -9.686,19.685 -11.83,30.575 20.47,-7.443 43.057,-10.772 62,-22 m 10,-20 c 2.501,-8.686 6.898,-16.554 10,-25 -8.022,-0.246 -13.274,2.745 -20,-3 -3.041,9.542 5.853,20.289 10,28 m 62,-25 C 472.684,19.179 444.659,13.77 437.01,24.751 430.706,33.8 422.828,52.81 422.042,64 422.318,61.028 457.493,47.482 462.096,44.739 472.277,38.671 481.678,31.404 490.042,23 c 0.108,0.019 -3.809,-4.38 -4,-4 m -46,42 c 12.18,1.766 27.173,4.806 39.063,0.05 15.119,-6.048 10.921,-26.39 17.937,-38.05 -16.632,16.15 -35.712,28.814 -57,38 m -94,24 c 14.087,-16.467 2.75,-37.181 -6,-53 -13.465,7.407 -29.133,20.613 -30.139,36.758 -0.555,8.898 0.346,17.832 -0.475,26.718 -0.439,4.758 -7.098,14.076 -5.387,18.524 8.794,-14.967 30.353,-17.289 42.001,-29 m 4,-41 c 4.061,4.646 3.777,11.803 7,17 2.198,-9.706 4.479,-19.373 7,-29 -6.075,2.124 -11.207,6.096 -14,12 m 100,22 c 5.495,18.095 20.533,11.818 28,0 -6.692,-5.415 -19.684,4.389 -28,0 m 4,21 c 1.484,-1.852 3.151,-3.518 5,-5 -13.119,-13.14 -16.057,-19.004 -35.65,-14.753 -17.522,3.801 -33.38,12.288 -50.35,17.753 20.892,0.236 72.143,40.197 88,9 -2.956,-1.706 -5.29,-4.039 -7,-7 m -156,-3 c 3.442,2.409 5.108,5.742 5,10 6.928,-3.806 2.416,-18.424 1,-24 -3.176,4.154 -5.176,8.82 -6,14 m -45,83 c 2.578,-10.281 24.727,-26.005 32.463,-33.614 3.665,-3.677 7.395,-7.288 11.189,-10.832 8.998,-8.217 0.472,-5.216 3.861,-14.524 4.265,-11.707 -2.853,-22.663 -12.514,-30.031 -4.881,13.98 -8.513,28.246 -10.679,42.9 -1.714,11.601 -5.696,13.129 -11,22.901 -0.34,0.626 -11.33,11.111 -11.321,11.199 -12.702,-10.845 -2.235,-33.377 -14,-46 -1.543,10.95 -5.798,19.784 -18,21 7.118,9.754 16.401,26.769 14.154,39.057 -1.154,6.309 -4.276,12.073 -6.058,18.195 -3.021,10.384 12.062,11.447 19.904,13.749 4.434,-11.713 -0.854,-22.612 2.001,-34 m 12,-49 c 4.052,-13.778 15.217,-23.896 -5.378,-27.431 -14.667,-2.518 -33.975,-1.921 -47.74,-6.7 -8.527,-2.96 -30.955,4.62 -39.882,7.131 -20.367,5.73 -39.202,15.511 -58,25 -54.912,27.718 -98.489,83.202 -102.232,149.09 -1.03,18.139 25.42,177.822 34.938,185.452 -0.255,0.075 28.31,54.979 32.251,61.007 19.082,29.179 45.865,50.212 75.787,61.695 30.726,11.792 67.629,-0.995 99.423,-1.065 33.043,-0.072 69.139,7.444 101.954,0.575 53.261,-11.148 102.913,-72.829 127.761,-118.595 16.049,-29.558 20.691,-64.893 22.677,-98.81 2.375,-40.572 4.14,-87.249 -7.292,-126.177 -7.668,-26.112 -14.984,-55.301 -34.241,-75.633 -7.206,-7.609 -19.123,-15.938 -28.967,-19.069 -13.53,-4.304 -25.529,9.558 -39.504,9.561 -3.82,0 -14.066,8.836 -22.405,9.616 -12.762,1.194 -25.545,-1.072 -37.876,-4.17 -23.498,-5.905 -51.53,4.33 -71.272,17.523 0.043,3.391 -4.751,20.917 4,18 8.047,-2.683 16.906,-0.667 25,-3 11.545,-3.327 28.335,-13.956 36,-5 -17.875,4.677 -37.045,6.728 -53.233,16.246 -19.102,11.231 -24.23,15.551 -43.758,5.038 -8.369,-4.505 -17.125,-7.214 -27.239,-9.444 -11.801,-2.602 -43.394,-1.555 -51.769,-9.84 12.88,-0.114 35.917,2.909 45,5 35.221,8.062 42.743,-32.719 17,-51 -6.994,-4.966 -10.866,-5.947 -15.451,-14.466 -8.439,-15.684 8.674,-14.668 17.439,-22.042 27.486,-23.125 33.48,12.562 40.012,33.509 9.831,-0.695 5.244,-6.04 6.997,-12.001 m 139,13 c 13.678,-3.702 4.338,-6.862 -2.193,-13.763 -10.367,-10.957 -10.148,-24.465 -28.035,-27.435 -12.185,-2.022 -25.1,1.06 -36.323,5.743 -5.07,2.115 -29.212,14.37 -27.448,21.456 10.477,-3.057 27.865,4.958 37.403,9.278 14.947,6.768 37.873,9.786 56.596,4.721 m -173,-40 c -5.877,4.639 -41.441,20.553 -21.788,26.255 18.127,5.259 35.84,-14.229 21.788,-26.255 m 193,30 c -3.884,-1.98 -7.217,-4.647 -10,-8 5.339,-2.271 13.927,0.629 17,-6 -12.568,-1.959 -23.635,-8.386 -36,-11 3.646,10.57 14.063,33.552 29,25 m -208,3 c 5.117,0.441 17.148,4.531 16,-6 -2.199,3.464 -16.488,0.883 -16,6 z m 73,16 c 20.41,-1.951 39.787,2.222 60,1 -9.813,-22.877 -52.117,-28.48 -60,-1 m 75,2 c 2.331,4.741 9.11,-1.651 11,-3 -9.686,-0.861 -18.146,-6.806 -28,-7 1.677,6.333 10.029,17.19 17,10"
   clip-rule="evenodd" />
	</g>
</svg>